<svg width="278" height="88" viewBox="0 0 278 88" fill="none" xmlns="http://www.w3.org/2000/svg">
<path d="M71.5449 46.9369C74.5807 45.8873 77.56 47.5576 78.4967 50.2661C79.5124 53.1665 78.0228 56.2813 75.1337 57.2631C72.2446 58.245 69.3329 56.8456 68.2608 54.0919C67.1887 51.3269 68.3962 48.0316 71.5449 46.9481V46.9369Z" fill="#5F4883"/>
<path d="M20.1728 20.8562C23.0506 19.3327 26.3573 20.4725 27.7115 23.2826C28.9304 25.7993 28.005 29.1059 25.2964 30.5053C22.7685 31.8145 19.4393 30.9455 17.9834 28.2821C16.6179 25.788 17.295 22.3798 20.1728 20.8675V20.8562Z" fill="#5F4883"/>
<path d="M46.8296 71.9797C49.7638 70.7496 52.8786 72.2731 53.9846 74.9929C55.0906 77.7128 53.8153 80.9743 50.8585 82.1254C48.308 83.1185 45.1706 81.9561 43.9405 79.2814C42.733 76.6294 43.7825 73.255 46.8296 71.9797Z" fill="#5F4883"/>
<path d="M14.6902 55.9314C17.5568 54.5094 20.728 55.8072 21.992 58.3803C23.3349 61.1227 22.2403 64.3504 19.5656 65.6821C16.8909 67.0137 13.7423 66.0093 12.3428 63.4814C10.8644 60.8293 11.7109 57.4098 14.6902 55.9314Z" fill="#5F4883"/>
<path d="M55.1917 15.9694C58.1372 14.6942 61.2069 16.1613 62.3354 18.7231C63.5881 21.5671 62.3016 24.727 59.6269 25.9346C56.8732 27.1872 53.7246 25.9797 52.4606 23.384C51.1289 20.6642 52.1559 17.2673 55.1804 15.9582L55.1917 15.9694Z" fill="#5F4883"/>
<path d="M36.3355 39.7931L30.7718 34.5002C30.1736 33.936 30.1285 32.988 30.6702 32.3673C35.0941 27.2662 35.5343 23.2599 36.0308 18.6779C36.6402 13.1367 37.3851 6.29772 46.2104 0.27125C46.9439 -0.225313 47.9596 -0.0221736 48.4223 0.733956L52.44 7.26827C52.8688 7.96798 52.6657 8.89339 51.9885 9.35609C47.542 12.4483 47.2599 15.044 46.7295 19.8403C46.1765 24.964 45.4204 31.8933 38.5813 39.669C37.9945 40.3348 36.9788 40.3913 36.3355 39.7819V39.7931Z" fill="#5F4883"/>
<path d="M84.5683 43.5738C84.0266 44.1945 83.0899 44.2622 82.4353 43.7544C78.1807 40.4026 75.6189 40.8878 70.879 41.7907C65.8118 42.7499 58.9727 44.0478 49.5268 39.7819C48.7142 39.4207 48.3644 38.4614 48.7593 37.6602L52.1901 30.7986C52.5626 30.065 53.4428 29.7377 54.199 30.0763C60.3721 32.8187 64.3221 32.0738 68.8589 31.2049C74.3323 30.1666 81.1036 28.88 89.4324 35.5724C90.1208 36.1253 90.2223 37.1523 89.6355 37.8182L84.557 43.5738H84.5683Z" fill="#5F4883"/>
<path d="M67.2694 87.4407L60.1821 84.4952C59.4147 84.1792 59.0423 83.3215 59.3244 82.5428C61.1188 77.4305 59.821 75.1621 57.4397 70.9751C54.8892 66.4948 51.4471 60.4458 52.4177 50.1308C52.4967 49.2505 53.2979 48.596 54.1782 48.7201L61.7846 49.7471C62.5972 49.8599 63.1953 50.5935 63.1163 51.4173C62.5182 58.1435 64.5157 61.642 66.7954 65.6484C69.5604 70.5012 72.9573 76.4712 69.3347 86.5379C69.0299 87.373 68.0932 87.8019 67.2694 87.4633V87.4407Z" fill="#5F4883"/>
<path d="M20.2861 84.0663C18.7739 84.3259 17.1149 84.4613 15.2641 84.4387C14.3725 84.4275 13.6728 83.6713 13.718 82.791L14.1807 75.1282C14.2258 74.3043 14.9255 73.6723 15.7493 73.6723C21.1664 73.6949 22.8818 71.7312 26.0643 68.1086C29.4613 64.2377 34.0545 59.0012 44.1211 56.5409C44.9788 56.3265 45.8591 56.8682 46.0284 57.7372L47.5519 65.2646C47.7212 66.0772 47.2134 66.8672 46.4121 67.0703C39.8552 68.7067 37.2031 71.7312 34.1673 75.2072C31.1202 78.6718 27.4976 82.8136 20.2861 84.0663Z" fill="#5F4883"/>
<path d="M27.8254 56.0782C27.1031 56.4731 26.189 56.2249 25.7601 55.5139C22.2842 49.7244 18.6164 48.0654 14.4069 46.1695C9.31714 43.8785 3.05368 41.0458 0.0630151 30.776C-0.185266 29.9183 0.322582 29.0268 1.19157 28.8123L8.6513 27.0179C9.45257 26.8261 10.2651 27.3001 10.5021 28.0901C12.0595 33.2814 14.4408 34.3535 18.8421 36.3398C23.5369 38.4615 29.8906 41.328 35.1723 50.2435C35.6237 51.011 35.3641 51.9928 34.5854 52.4216L27.8254 56.0669V56.0782Z" fill="#5F4883"/>
<path d="M120.366 36.9651L135.29 60.3753V50.3989C135.159 47.5821 135.039 44.8219 134.389 42.0522C133.969 40.2717 133.389 38.4818 132.289 36.9651H140.491C140.201 37.5774 139.831 38.1615 139.57 38.7927C138.22 42.024 138.02 45.698 137.77 49.1271V67.5726H134.209L128.588 58.7455L118.126 41.7979V55.9664C118.426 59.9702 118.936 64.2 121.416 67.5726H113.025C114.535 64.9254 115.105 61.5811 115.345 58.6042C115.825 52.754 115.425 46.6777 115.485 40.8087L113.025 36.9745H120.366V36.9651Z" fill="#5F4883"/>
<path d="M222.719 36.9651C222.719 37.1064 222.759 37.2477 222.809 37.3796C225.7 44.3414 228.42 51.4822 231.481 58.3687C232.891 61.5246 234.382 64.6993 236.372 67.5726H227.75C228.02 62.2782 223.429 53.4794 223.429 53.4794H216.708C216.708 53.4794 216.188 55.599 216.028 57.144C215.678 60.6108 215.598 64.1341 216.218 67.5726H209.436C210.237 65.8675 211.097 64.1812 211.767 62.429C213.877 56.8802 215.778 49.5416 218.278 44.04C218.498 43.5595 219.999 39.3014 219.999 39.1224L219.519 36.9745H222.709L222.719 36.9651ZM223.209 51.991L219.979 43.8421C218.618 46.593 217.738 49.0329 216.998 51.991H223.209Z" fill="#5F4883"/>
<path d="M278 67.5726H271.659L270.348 63.9268C269.838 64.5486 269.438 65.2646 268.848 65.8392C264.917 69.7299 256.915 68.0436 255.195 62.8341C253.265 56.9744 258.106 51.5482 263.617 49.5322L262.317 50.8605C259.496 53.9599 258.626 59.3673 261.266 62.7681C263.287 65.3776 267.688 65.745 270.028 63.3333C268.548 59.4992 267.298 55.5708 265.677 51.7837C264.977 50.1539 263.707 46.6118 261.396 46.6118H259.656C259.586 46.6118 259.326 46.8096 259.216 46.6589C261.666 45.1328 265.267 44.7842 267.728 46.4799C269.098 47.422 269.698 48.7126 270.328 50.1351C272.309 54.6005 273.749 59.3673 275.729 63.8138C276.32 65.1421 276.94 66.4892 278 67.5538V67.5726Z" fill="#5F4883"/>
<path d="M178.729 45.3684C188.641 44.8409 194.893 55.5898 189.191 63.2205C184.5 69.504 174.778 69.4192 169.957 63.3147C164.316 56.1833 169.257 45.8772 178.729 45.3684ZM176.449 46.7533C174.918 46.9323 173.718 48.0816 173.128 49.3628C171.188 53.5455 173.748 60.1682 176.659 63.5502C181.85 69.5794 187.331 65.9148 186.441 58.8681C185.921 54.6948 181.99 46.1221 176.449 46.7533Z" fill="#5F4883"/>
<path d="M152.692 45.3684C162.604 44.8409 168.856 55.5898 163.155 63.2205C158.464 69.504 148.741 69.4192 143.92 63.3147C138.279 56.1833 143.22 45.8772 152.692 45.3684ZM150.582 47.2902C149.131 47.4504 148.001 48.5432 147.441 49.7584C145.611 53.7151 148.031 59.9704 150.782 63.1639C155.693 68.8634 160.864 65.3966 160.034 58.7363C159.544 54.789 155.823 46.6873 150.592 47.2808L150.582 47.2902Z" fill="#5F4883"/>
<path d="M200.194 52.2639L200.914 50.2008C202.374 46.5079 205.615 45.7637 209.686 45.3397L208.616 50.3421C204.885 49.7768 200.464 51.5385 200.194 55.4857C200.054 57.4735 200.084 60.4315 200.304 62.4004C200.514 64.1998 200.994 66.2064 202.324 67.5535H195.063C195.083 66.2629 195.033 64.9723 195.063 63.6816C195.123 60.0453 196.103 52.4334 193.962 49.5131C193.702 49.1551 193.342 48.9384 193.122 48.571L200.194 45.3397V52.2639Z" fill="#5F4883"/>
<path d="M240.251 45.7076C239.451 47.1584 240.031 48.7505 240.561 50.1918C241.482 52.66 245.632 61.148 245.762 61.1574C247.843 56.0043 252.074 50.4368 249.443 45.7076H256.155C256.195 45.8584 254.924 47.4128 254.504 48.0251C251.304 52.726 245.062 67.5634 245.062 67.5634H242.662C242.642 67.3091 237.711 55.4768 235.03 50.107C234.44 48.92 233.63 47.328 232.74 46.3388C232.52 46.0939 232.149 46.0185 232.21 45.6982H240.241L240.251 45.7076Z" fill="#5F4883"/>
</svg>
