<svg width="230" height="70" viewBox="0 0 230 70" fill="none" xmlns="http://www.w3.org/2000/svg">
<path d="M57.1935 37.5344C59.6209 36.6921 62.003 38.0235 62.7548 40.1973C63.5609 42.516 62.3744 45.0068 60.0647 45.7948C57.7551 46.5828 55.4274 45.4596 54.5669 43.2587C53.7064 41.0487 54.6756 38.413 57.1935 37.5435V37.5344Z" fill="white"/>
<path d="M16.1271 16.6841C18.4277 15.4704 21.0724 16.3852 22.1593 18.6224C23.1285 20.6331 22.3948 23.2779 20.2301 24.3919C18.2012 25.4335 15.5474 24.7452 14.379 22.6076C13.2921 20.615 13.8356 17.8887 16.1271 16.675V16.6841Z" fill="white"/>
<path d="M37.4391 57.5601C39.785 56.5728 42.2758 57.7865 43.1634 59.9693C44.0601 62.1793 43.0275 64.7516 40.6635 65.6755C38.6256 66.4726 36.1077 65.5487 35.1295 63.4021C34.1603 61.2827 35.0027 58.5835 37.4391 57.5601Z" fill="white"/>
<path d="M11.7349 44.7258C14.0264 43.5936 16.5715 44.6261 17.5769 46.6822C18.6547 48.8741 17.7762 51.4554 15.6386 52.5242C13.5011 53.593 10.9831 52.7869 9.85997 50.7671C8.68251 48.6476 9.35276 45.9123 11.7349 44.7258Z" fill="white"/>
<path d="M44.1237 12.7714C46.4787 11.7479 48.9332 12.9254 49.839 14.9723C50.8353 17.2457 49.8118 19.7818 47.6742 20.7419C45.5367 21.702 42.9553 20.7781 41.95 18.704C40.8902 16.5302 41.7145 13.813 44.1237 12.7623V12.7714Z" fill="white"/>
<path d="M29.0434 31.8281L24.5962 27.5983C24.1161 27.1454 24.0799 26.3936 24.5146 25.8864C28.0561 21.8015 28.4003 18.6042 28.7988 14.936C29.2788 10.4979 29.8766 5.03624 36.9414 0.217697C37.5302 -0.180829 38.3363 -0.0177959 38.7076 0.589051L41.923 5.81518C42.2672 6.37674 42.1041 7.11039 41.5607 7.4908C38.0011 9.96347 37.7747 12.0376 37.3581 15.8689C36.9142 19.9629 36.3074 25.506 30.8367 31.7284C30.3657 32.2628 29.5506 32.3081 29.0343 31.819L29.0434 31.8281Z" fill="white"/>
<path d="M67.6191 34.8441C67.1844 35.3423 66.4326 35.3966 65.9164 34.989C62.5108 32.308 60.4638 32.6884 56.6778 33.413C52.6291 34.1829 47.1585 35.2155 39.6046 31.8008C38.9615 31.511 38.6717 30.7411 38.9887 30.1071L41.7331 24.6183C42.032 24.0296 42.7384 23.7759 43.3453 24.0386C48.2816 26.2305 51.4426 25.6327 55.0656 24.9444C59.4494 24.1111 64.8566 23.0876 71.5229 28.4405C72.0754 28.8843 72.1569 29.7085 71.6859 30.2429L67.6191 34.8441Z" fill="white"/>
<path d="M53.7788 69.9236L48.1089 67.5687C47.502 67.315 47.2031 66.6267 47.4205 66.0017C48.8516 61.9168 47.819 60.0963 45.9079 56.745C43.87 53.1674 41.1075 48.3217 41.8955 40.0704C41.9589 39.3639 42.5929 38.8476 43.2994 38.9382L49.386 39.7533C50.0381 39.8439 50.5091 40.4326 50.4548 41.0848C49.9838 46.4649 51.5779 49.2636 53.3984 52.4699C55.6084 56.3465 58.3256 61.1288 55.4273 69.1718C55.1827 69.8421 54.431 70.1772 53.7788 69.9055V69.9236Z" fill="white"/>
<path d="M16.2088 67.2244C15.0041 67.4327 13.6727 67.5414 12.1873 67.5233C11.4808 67.5142 10.9102 66.9165 10.9555 66.2009L11.3268 60.0691C11.363 59.4079 11.9246 58.9006 12.5767 58.9097C16.9062 58.9278 18.2829 57.3609 20.828 54.4625C23.5453 51.3649 27.2135 47.1804 35.2746 45.2149C35.963 45.0428 36.6604 45.4776 36.8053 46.175L38.019 52.1891C38.1458 52.8322 37.7473 53.4753 37.1042 53.6383C31.86 54.9516 29.7405 57.3699 27.3041 60.1415C24.8677 62.9131 21.9693 66.2281 16.2088 67.2244Z" fill="white"/>
<path d="M22.2412 44.8435C21.6616 45.1606 20.937 44.9613 20.5928 44.3907C17.8122 39.7623 14.8776 38.44 11.5173 36.9183C7.45048 35.0887 2.43267 32.8244 0.050574 24.6184C-0.148689 23.939 0.258894 23.2145 0.956315 23.0514L6.92515 21.6203C7.56823 21.4664 8.2113 21.8468 8.40151 22.4808C9.65143 26.6291 11.5535 27.4895 15.0678 29.0746C18.8266 30.7683 23.8987 33.0599 28.1195 40.1971C28.4818 40.8039 28.2735 41.601 27.6485 41.9361L22.2503 44.8526L22.2412 44.8435Z" fill="white"/>
<path d="M89.8794 25.2609L103.133 47.3346V37.9277C103.017 35.2718 102.91 32.6691 102.333 30.0576C101.96 28.3787 101.445 26.691 100.468 25.2609H107.752C107.494 25.8382 107.165 26.389 106.934 26.9841C105.735 30.0309 105.558 33.4952 105.335 36.7286V54.1211H102.173L97.181 45.7979L87.8896 29.8177V43.1775C88.1561 46.9527 88.6091 50.9411 90.812 54.1211H83.3594C84.7007 51.625 85.207 48.4716 85.4202 45.6647C85.8466 40.1484 85.4912 34.419 85.5445 28.885L83.3594 25.2697H89.8794V25.2609Z" fill="white"/>
<path d="M180.785 25.2609C180.785 25.3941 180.82 25.5273 180.865 25.6517C183.432 32.2161 185.848 38.9493 188.566 45.4426C189.818 48.4183 191.142 51.4118 192.91 54.1211H185.253C185.493 49.129 181.415 40.8324 181.415 40.8324H175.446C175.446 40.8324 174.984 42.8311 174.842 44.2878C174.531 47.5567 174.46 50.8789 175.011 54.1211H168.988C169.699 52.5133 170.463 50.9233 171.058 49.2711C172.932 44.0391 174.62 37.1194 176.841 31.9319C177.036 31.4788 178.369 27.4638 178.369 27.295L177.942 25.2697H180.776L180.785 25.2609ZM181.211 39.4378L178.342 31.7542C177.134 34.348 176.352 36.6486 175.695 39.4378H181.211Z" fill="white"/>
<path d="M229.871 54.1209H224.239L223.076 50.6833C222.623 51.2696 222.267 51.9446 221.743 52.4865C218.252 56.1551 211.146 54.5651 209.618 49.6529C207.904 44.1278 212.203 39.0113 217.098 37.1104L215.943 38.3628C213.438 41.2853 212.665 46.384 215.01 49.5907C216.805 52.0512 220.713 52.3977 222.792 50.1237C221.477 46.5084 220.367 42.8042 218.928 39.2334C218.306 37.6966 217.178 34.3567 215.126 34.3567H213.58C213.518 34.3567 213.287 34.5432 213.189 34.4011C215.366 32.9621 218.563 32.6334 220.749 34.2323C221.965 35.1206 222.498 36.3376 223.058 37.6789C224.817 41.8893 226.096 46.384 227.855 50.5767C228.379 51.8292 228.93 53.0994 229.871 54.1032V54.1209Z" fill="white"/>
<path d="M141.71 33.1932C150.512 32.6957 156.064 42.831 151.001 50.0261C146.835 55.9509 138.201 55.871 133.919 50.1149C128.909 43.3906 133.298 33.6728 141.71 33.1932ZM139.684 34.4901C138.325 34.6588 137.259 35.7425 136.735 36.9506C135.012 40.8946 137.286 47.1392 139.871 50.3281C144.481 56.0131 149.349 52.5577 148.558 45.9133C148.096 41.9783 144.605 33.8949 139.684 34.4901Z" fill="white"/>
<path d="M118.588 33.1932C127.391 32.6957 132.943 42.831 127.88 50.0261C123.714 55.9509 115.08 55.871 110.798 50.1149C105.788 43.3906 110.176 33.6728 118.588 33.1932ZM116.714 35.0053C115.426 35.1563 114.422 36.1867 113.925 37.3326C112.299 41.0633 114.449 46.9615 116.892 49.9728C121.253 55.3469 125.846 52.078 125.108 45.7979C124.673 42.076 121.369 34.4368 116.723 34.9964L116.714 35.0053Z" fill="white"/>
<path d="M160.772 39.6955L161.412 37.7502C162.709 34.2681 165.587 33.5664 169.202 33.1666L168.252 37.8834C164.938 37.3504 161.012 39.0115 160.772 42.7334C160.648 44.6077 160.675 47.3969 160.87 49.2534C161.057 50.95 161.483 52.842 162.664 54.1123H156.215C156.233 52.8953 156.189 51.6784 156.215 50.4614C156.269 47.0327 157.139 39.8554 155.238 37.1017C155.007 36.7642 154.688 36.5599 154.492 36.2134L160.772 33.1666V39.6955Z" fill="white"/>
<path d="M196.358 33.504C195.648 34.872 196.163 36.3731 196.634 37.7322C197.451 40.0595 201.137 48.0629 201.253 48.0718C203.101 43.2129 206.858 37.9632 204.522 33.504H210.482C210.518 33.6461 209.39 35.1118 209.016 35.6892C206.174 40.1217 200.631 54.1121 200.631 54.1121H198.499C198.481 53.8723 194.102 42.7155 191.722 37.6523C191.198 36.533 190.478 35.0318 189.687 34.0991C189.492 33.8682 189.163 33.7971 189.217 33.4951H196.35L196.358 33.504Z" fill="white"/>
</svg>
